<?xml version="1.0" encoding="iso-8859-1"?>
<!-- Generator: Adobe Illustrator 19.0.0, SVG Export Plug-In . SVG Version: 6.00 Build 0)  -->
<svg version="1.1" id="Layer_1" xmlns="http://www.w3.org/2000/svg" xmlns:xlink="http://www.w3.org/1999/xlink" x="0px" y="0px"
	 viewBox="0 0 512.002 512.002" style="enable-background:new 0 0 512.002 512.002;" xml:space="preserve">
<circle style="fill:#FF873D;" cx="256.001" cy="256.001" r="256.001"/>
<path style="fill:#FFFFFF;" d="M257.584,0.027v225.538h-3.168V0.027C254.948,0.027,255.467,0,256,0
	C256.533,0,257.051,0.014,257.584,0.027z"/>
<g>
	<path style="fill:#333333;" d="M200.292,296.033l-68.693,1.448l-20.385,68.284l-0.437,0.532l-13.859,5.338l8.738-9.79
		l19.485-72.393l71.779-7.1l3.373,13.667v0.014H200.292z"/>
	<path style="fill:#333333;" d="M195.321,257.352l-65.485-35.569l-16.521,70.769l-0.437,0.532l-12.507,7.619l7.524-9.148
		l17.259-78.224l66.796,30.339l3.373,13.667v0.014H195.321z"/>
	<path style="fill:#333333;" d="M212.143,222.397l-51.257-30.517l-13.94,63.041l-0.341,0.396l-9.585,5.844l5.776-7.005
		l14.515-68.748l52.267,26.517l2.581,10.473H212.143z"/>
	<path style="fill:#333333;" d="M235.096,206.887l-38.273-29.097l-18.31,35.911l-0.3,0.41l-8.588,5.83l5.161-7.005l18.815-41.617
		l39.16,25.096l2.321,10.473L235.096,206.887L235.096,206.887z"/>
	<path style="fill:#333333;" d="M311.695,296.033l68.693,1.448l20.385,68.284l0.437,0.532l13.859,5.338l-8.738-9.79l-19.485-72.393
		l-71.779-7.1l-3.373,13.667L311.695,296.033L311.695,296.033z"/>
	<path style="fill:#333333;" d="M316.665,257.352l65.485-35.569l16.521,70.769l0.437,0.532l12.507,7.619l-7.524-9.148
		l-17.259-78.224l-66.796,30.339l-3.373,13.667v0.014H316.665z"/>
	<path style="fill:#333333;" d="M299.843,222.397L351.1,191.88l13.94,63.041l0.341,0.396l9.585,5.844l-5.776-7.005l-14.515-68.748
		l-52.267,26.517l-2.581,10.473H299.843z"/>
	<path style="fill:#333333;" d="M276.904,206.887l38.273-29.097l18.31,35.911l0.3,0.41l8.589,5.83l-5.161-7.005L318.4,171.318
		l-39.16,25.096l-2.321,10.473L276.904,206.887L276.904,206.887z"/>
</g>
<path style="fill:#1A1A1A;" d="M255.782,194.885c0.724,0.014,1.448,0.014,2.171,0.041c1.406-4.519,3.81-11.92,4.137-10.732
	c0.327,1.202,1.665,7.551,2.417,11.156c0.614,0.054,1.243,0.122,1.857,0.205l5.653-9.804l2.513,11.156
	c0.614,0.137,1.216,0.259,1.83,0.41l9.79-14.296l-1.352,16.521c0.505,0.191,3.413,1.433,3.919,1.638l6.567-7.359l-0.546,9.994
	c0.628,0.3,1.243,0.614,1.857,0.929l10.323-6.117l-4.37,9.476l0.246,0.151l15.593-5.598l-6.349,10.855l10.541-3.413l-5.353,9.299
	l12.48-0.778l-7.113,6.923c0.327,0.396,0.669,0.806,0.983,1.229l17.709-4.097l-11.961,12.548l0.068,0.122l10.445-0.314l-7.851,5.216
	c0.355,0.737,0.71,1.475,1.038,2.226l10.773,1.092l-8.725,4.083c0.246,0.71,0.492,1.448,0.71,2.171l12.043,1.338l-10.691,2.786
	l10.077,4.492l-8.834,3.386c0.095,0.778,0.178,1.557,0.259,2.349l17.764,4.97l-17.504,1.516c0,0.451,0,0.901-0.014,1.352
	l8.657,3.318l-8.998,1.994c-0.068,0.6-0.137,1.188-0.205,1.789l9.203,3.823l-10.364,2.649c-0.109,0.464-0.219,0.929-0.327,1.379
	l6.199,4.178l-7.551,0.437c-0.382,1.16-0.792,2.308-1.229,3.454l14.774,10.145l-17.423-4.137c-0.287,0.573-0.587,1.16-0.887,1.721
	l7.359,9.285l-11.169-2.935c-0.505,0.751-1.011,1.475-1.543,2.211l6.049,9.421l-9.148-5.421c-0.641,0.778-1.311,1.529-1.98,2.281
	l8.247,12.575l-12.302-8.383c-0.505,0.492-1.024,0.97-1.543,1.448l5.107,10.678l-10.596-6.117c-0.396,0.3-0.792,0.6-1.188,0.887
	l2.171,12.507l-10.5-7.141l-0.97,0.546l5.297,17.996l-12.275-14.569l-1.284,0.546l1.27,13.313l-8.684-10.596l-1.297,0.41
	l-2.267,13.518l-6.308-11.401c-0.806,0.164-1.625,0.314-2.444,0.451l-4.478,12.056l-4.97-10.951
	c-0.792,0.054-1.57,0.082-2.362,0.122l-4.233,11.975l-3.919-12.002c-0.628-0.027-1.256-0.068-1.884-0.109l-4.273,15.129
	l-4.697-16.166c-0.6-0.095-1.202-0.205-1.802-0.314l-6.226,12.848l-3.564-15.197l-14.473,12.548l3.987-16.535l-0.86-0.382
	l-12.37,7.619l2.211-13.162c-0.396-0.259-0.792-0.519-1.174-0.765l-17.123,13.217l8.97-19.361l-0.614-0.532l-8.697,4.492
	l3.727-9.216c-0.737-0.765-1.448-1.543-2.157-2.335l-10.254,4.11l5.079-10.61l-0.628-0.915l-10.8,2.513l6.691-9.203l-0.205-0.368
	l-19.02,4.765l15.77-11.756c-0.205-0.492-0.396-0.997-0.587-1.502l-13.982-2.676l11.401-5.844l-0.151-0.641l-10.022-3.413
	l8.807-3.824c-0.082-0.656-0.137-1.324-0.191-2.007l-9.162-2.486l8.93-3.578c0-0.874,0.027-1.748,0.068-2.622l-9.38-3.495
	l9.79-1.557c0.122-1.011,0.259-2.021,0.424-3.018l-6.8-4.724l8.451-2.73c0.122-0.451,0.259-0.914,0.396-1.365l-18.761-5.462
	l20.999-0.819l0.327-0.778l-10.186-7.442l12.999,1.597c0.232-0.437,0.478-0.874,0.724-1.311l-7.21-7.729l10.746,2.103
	c0.314-0.464,0.641-0.915,0.97-1.379l-5.121-9.094l9.967,3.072c0.573-0.641,1.16-1.284,1.762-1.911L177.8,205.589l19.047,10.527
	c0.505-0.437,1.011-0.874,1.529-1.311l-4.178-9.886l10.951,4.819c0.846-0.573,1.707-1.119,2.581-1.652l-2.676-9.531l7.742,6.622
	c0.492-0.259,0.983-0.519,1.489-0.765c-0.628-4.041-1.762-11.838-1.011-11.893c0.724-0.054,4.178,6.021,6.117,9.516
	c0.451-0.191,0.887-0.382,1.338-0.56l-1.557-19.061l9.353,16.317c0.724-0.219,1.461-0.424,2.198-0.628l-0.246-12.862
	c0,0,5.107,7.905,7.456,11.196l1.216-0.219c0.382-3.837,1.87-13.148,1.87-13.148l5.571,12.153l0.86-0.068
	c0.943-3.454,3.591-12.944,4.11-11.934c0.424,0.846,2.772,7.469,4.233,11.62L255.782,194.885z"/>
<path style="fill:#F6F6F6;" d="M229.525,315.737l10.35,15.853l2.813-13.9c0,0-7.878-0.6-13.162-1.938V315.737z M282.461,315.737
	l-10.35,15.853l-2.813-13.9c0,0,7.878-0.6,13.162-1.938V315.737z"/>
<path style="fill:#333333;" d="M256,224.678c32.688,0,59.177,21.888,59.177,48.895c0,26.994-26.488,48.895-59.177,48.895
	s-59.177-21.888-59.177-48.895S223.313,224.678,256,224.678z"/>
<path style="fill:#DEDEDE;" d="M224.459,247.016c14.378,0,26.025,11.647,26.025,26.025s-11.661,26.025-26.025,26.025
	c-14.378,0-26.025-11.661-26.025-26.025C198.434,258.663,210.081,247.016,224.459,247.016z"/>
<path style="fill:#EBEBEB;" d="M224.391,251.508c12.589,0,22.802,10.213,22.802,22.802c0,12.602-10.213,22.816-22.802,22.816
	c-12.589,0-22.816-10.213-22.816-22.816C201.574,261.707,211.789,251.508,224.391,251.508z"/>
<path style="fill:#1A1A1A;" d="M222.602,277.205c3.864,0,6.991,3.127,6.991,6.991s-3.127,6.991-6.991,6.991
	c-3.864,0-6.991-3.127-6.991-6.991C215.611,280.331,218.738,277.205,222.602,277.205z"/>
<path style="fill:#DEDEDE;" d="M287.528,247.016c14.378,0,26.025,11.647,26.025,26.025s-11.661,26.025-26.025,26.025
	c-14.378,0-26.025-11.661-26.025-26.025C261.503,258.663,273.15,247.016,287.528,247.016z"/>
<path style="fill:#EBEBEB;" d="M287.46,251.508c12.589,0,22.802,10.213,22.802,22.802c0,12.602-10.213,22.816-22.802,22.816
	c-12.602,0-22.816-10.213-22.816-22.816C264.643,261.707,274.856,251.508,287.46,251.508z"/>
<path style="fill:#1A1A1A;" d="M285.684,277.205c3.864,0,6.991,3.127,6.991,6.991s-3.127,6.991-6.991,6.991
	c-3.864,0-6.991-3.127-6.991-6.991C278.693,280.331,281.82,277.205,285.684,277.205z"/>
<g>
</g>
<g>
</g>
<g>
</g>
<g>
</g>
<g>
</g>
<g>
</g>
<g>
</g>
<g>
</g>
<g>
</g>
<g>
</g>
<g>
</g>
<g>
</g>
<g>
</g>
<g>
</g>
<g>
</g>
</svg>
